# xmcd
#
# Track frame offsets: 
#        150
#        31371
#        51693
#        80617
#        139704
#        178712
#
# Disc length: 2704 seconds
#
# Revision: 0
# Processed by: cddbd v1.5.2PL0 Copyright (c) Steve Scherf et al.
# Submitted via: ExactAudioCopy v1.2
#
DISCID=520a8e06
DTITLE=Eric Clapton - Back to Budokan [2nd Night, 15th April 2016] (Di
DTITLE=sc 2)
DYEAR=2016
DGENRE=Blues
TTITLE0=Gin House
TTITLE1=Wonderful Tonight
TTITLE2=Crossroads
TTITLE3=Little Queen Of Spades
TTITLE4=Cocaine
TTITLE5=High Time We Went
EXTD=
EXTT0=
EXTT1=
EXTT2=
EXTT3=
EXTT4=
EXTT5=
PLAYORDER=
